<svg xmlns="http://www.w3.org/2000/svg" version="1.1" width="1000" height="219" viewBox="0 0 1000 219">
    <g transform="matrix(1,0,0,1,-0.6060463224555406,0.022483241741610982)">
        <svg viewBox="0 0 396 87" data-background-color="#ffffff" preserveAspectRatio="xMidYMid meet" height="219"
             width="1000" xmlns="http://www.w3.org/2000/svg">
            <defs></defs>
            <g id="tight-bounds" transform="matrix(1,0,0,1,0.2399943436923877,-0.00893169877406308)">
                <svg viewBox="0 0 395.52 87.01786339754815" height="87.01786339754815" width="395.52">
                    <g>
                        <svg viewBox="0 0 395.52 87.01786339754815" height="87.01786339754815" width="395.52">
                            <g>
                                <svg viewBox="0 0 395.52 87.01786339754815" height="87.01786339754815" width="395.52">
                                    <g>
                                        <svg viewBox="0 0 395.52 87.01786339754815" height="87.01786339754815"
                                             width="395.52">
                                            <g>
                                                <svg viewBox="0 0 395.52 87.01786339754815" height="87.01786339754815"
                                                     width="395.52">
                                                    <g transform="matrix(1,0,0,1,0,0)">
                                                        <svg width="395.52"
                                                             viewBox="-0.05000042915344238 -47 228.39999389648438 47.25"
                                                             height="87.01786339754815" data-palette-color="#0080ff">
                                                            <svg></svg>
                                                            <g class="undefined-text-0"
                                                               data-fill-palette-color="primary" id="text-0">
                                                                <path d="M11.6 0.25c-1.233 0-2.117-0.277-2.65-0.83-0.533-0.547-0.8-1.587-0.8-3.12v0c0-1.033 0.107-2.36 0.32-3.98 0.22-1.613 0.58-3.837 1.08-6.67v0c0.867-5.233 1.55-9.767 2.05-13.6v0c0.3-2.4 0.45-4.4 0.45-6v0c0-1.5-0.55-2.25-1.65-2.25v0c-0.867 0-1.907 0.44-3.12 1.32-1.22 0.887-2.563 2.297-4.03 4.23v0c-0.467 0.633-0.983 0.95-1.55 0.95v0c-0.467 0-0.873-0.227-1.22-0.68-0.353-0.447-0.53-0.953-0.53-1.52v0c0-0.533 0.11-1.073 0.33-1.62 0.213-0.553 0.57-1.18 1.07-1.88v0c1.6-2.233 3.383-3.96 5.35-5.18 1.967-1.213 3.933-1.82 5.9-1.82v0c1.833 0 3.24 0.583 4.22 1.75 0.987 1.167 1.48 2.867 1.48 5.1v0c0 0.9-0.083 1.957-0.25 3.17-0.167 1.22-0.317 2.213-0.45 2.98-0.133 0.767-0.233 1.3-0.3 1.6v0c1.9-5.433 4.033-9.227 6.4-11.38 2.367-2.147 4.967-3.22 7.8-3.22v0c2.167 0 3.877 0.767 5.13 2.3 1.247 1.533 1.87 3.7 1.87 6.5v0c0 1.1-0.15 2.467-0.45 4.1v0c1.667-4.6 3.617-7.9 5.85-9.9 2.233-2 4.8-3 7.7-3v0c2.333 0 4.127 0.75 5.38 2.25 1.247 1.5 1.87 3.6 1.87 6.3v0c0 1.467-0.217 3.25-0.65 5.35v0l-3.05 14.3c-0.333 1.667-0.5 3.1-0.5 4.3v0c0 1.4 0.327 2.45 0.98 3.15 0.647 0.7 1.553 1.05 2.72 1.05v0c1.1 0 2.177-0.367 3.23-1.1 1.047-0.733 2.287-1.95 3.72-3.65v0c0.4-0.467 0.85-0.7 1.35-0.7v0c0.433 0 0.773 0.2 1.02 0.6 0.253 0.4 0.38 0.95 0.38 1.65v0c0 1.3-0.317 2.333-0.95 3.1v0c-1.733 2.1-3.45 3.633-5.15 4.6-1.7 0.967-3.483 1.45-5.35 1.45v0c-2.833 0-5.05-0.84-6.65-2.52-1.6-1.687-2.4-3.947-2.4-6.78v0c0-1.967 0.4-4.817 1.2-8.55v0l2-9.15c0.067-0.3 0.183-0.833 0.35-1.6 0.167-0.767 0.3-1.493 0.4-2.18 0.1-0.68 0.15-1.353 0.15-2.02v0c0-1.167-0.223-2.043-0.67-2.63-0.453-0.58-1.097-0.87-1.93-0.87v0c-1.567 0-3.207 1.01-4.92 3.03-1.72 2.013-3.353 5.353-4.9 10.02-1.553 4.667-2.813 10.733-3.78 18.2v0c-0.233 2-0.64 3.34-1.22 4.02-0.587 0.687-1.53 1.03-2.83 1.03v0c-1.133 0-1.957-0.267-2.47-0.8-0.52-0.533-0.78-1.533-0.78-3v0c0-1.367 0.183-3.16 0.55-5.38 0.367-2.213 0.833-4.82 1.4-7.82v0c1.533-8.067 2.3-13.267 2.3-15.6v0c0-1.267-0.24-2.2-0.72-2.8-0.487-0.6-1.213-0.9-2.18-0.9v0c-1.633 0-3.317 0.927-5.05 2.78-1.733 1.847-3.423 5.127-5.07 9.84-1.653 4.72-3.03 11.097-4.13 19.13v0c-0.233 1.7-0.573 2.883-1.02 3.55-0.453 0.667-1.33 1-2.63 1zM70.15 0.25c-2.067 0-3.717-0.75-4.95-2.25-1.233-1.5-1.85-3.467-1.85-5.9v0c0-2.667 0.617-5.193 1.85-7.58 1.233-2.38 2.877-4.297 4.93-5.75 2.047-1.447 4.22-2.17 6.52-2.17v0c0.733 0 1.227 0.14 1.48 0.42 0.247 0.287 0.453 0.797 0.62 1.53v0c0.7-0.133 1.433-0.2 2.2-0.2v0c1.633 0 2.45 0.583 2.45 1.75v0c0 0.7-0.25 2.367-0.75 5v0c-0.767 3.833-1.15 6.5-1.15 8v0c0 0.5 0.127 0.9 0.38 1.2 0.247 0.3 0.57 0.45 0.97 0.45v0c0.633 0 1.4-0.41 2.3-1.23 0.9-0.813 2.117-2.137 3.65-3.97v0c0.4-0.467 0.85-0.7 1.35-0.7v0c0.433 0 0.777 0.2 1.03 0.6 0.247 0.4 0.37 0.95 0.37 1.65v0c0 1.333-0.317 2.367-0.95 3.1v0c-1.367 1.7-2.817 3.133-4.35 4.3-1.533 1.167-3.017 1.75-4.45 1.75v0c-1.1 0-2.107-0.377-3.02-1.13-0.92-0.747-1.613-1.77-2.08-3.07v0c-1.733 2.8-3.917 4.2-6.55 4.2zM71.95-4.8c0.733 0 1.433-0.433 2.1-1.3 0.667-0.867 1.15-2.017 1.45-3.45v0l1.85-9.2c-1.4 0.033-2.693 0.557-3.88 1.57-1.18 1.02-2.12 2.363-2.82 4.03-0.7 1.667-1.05 3.433-1.05 5.3v0c0 1.033 0.207 1.8 0.62 2.3 0.42 0.5 0.997 0.75 1.73 0.75zM109.8-11.15c0.433 0 0.773 0.2 1.02 0.6 0.253 0.4 0.38 0.95 0.38 1.65v0c0 1.333-0.317 2.367-0.95 3.1v0c-1.433 1.767-3 3.217-4.7 4.35-1.7 1.133-3.65 1.7-5.85 1.7v0c-6.8 0-10.2-4.783-10.2-14.35v0c0-1.467 0.05-2.95 0.15-4.45v0h-1.95c-1 0-1.677-0.183-2.03-0.55-0.347-0.367-0.52-0.95-0.52-1.75v0c0-1.867 0.75-2.8 2.25-2.8v0h2.85c0.567-3.667 1.433-7.017 2.6-10.05 1.167-3.033 2.573-5.45 4.22-7.25 1.653-1.8 3.43-2.7 5.33-2.7v0c1.4 0 2.5 0.617 3.3 1.85 0.8 1.233 1.2 2.783 1.2 4.65v0c0 5.167-2.167 9.667-6.5 13.5v0h5.6c0.533 0 0.917 0.117 1.15 0.35 0.233 0.233 0.35 0.667 0.35 1.3v0c0 2.3-1.883 3.45-5.65 3.45v0h-6.1c-0.067 1.667-0.1 2.967-0.1 3.9v0c0 3.467 0.41 5.9 1.23 7.3 0.813 1.4 2.103 2.1 3.87 2.1v0c1.433 0 2.7-0.433 3.8-1.3 1.1-0.867 2.4-2.167 3.9-3.9v0c0.4-0.467 0.85-0.7 1.35-0.7zM101.05-38.85c-0.5 0-1.057 0.623-1.67 1.87-0.62 1.253-1.203 2.987-1.75 5.2-0.553 2.22-1.013 4.68-1.38 7.38v0c1.967-1.7 3.44-3.61 4.42-5.73 0.987-2.113 1.48-4.037 1.48-5.77v0c0-1.967-0.367-2.95-1.1-2.95zM116.7 0.25c-3.267 0-5.807-0.927-7.62-2.78-1.82-1.847-2.73-4.287-2.73-7.32v0c0-2.7 0.533-5.067 1.6-7.1 1.067-2.033 2.45-3.6 4.15-4.7 1.7-1.1 3.483-1.65 5.35-1.65v0c1.833 0 3.257 0.54 4.27 1.62 1.02 1.087 1.53 2.48 1.53 4.18v0c0 1.4-0.307 2.583-0.92 3.55-0.62 0.967-1.43 1.45-2.43 1.45v0c-0.633 0-1.14-0.15-1.52-0.45-0.387-0.3-0.58-0.717-0.58-1.25v0c0-0.233 0.033-0.5 0.1-0.8 0.067-0.3 0.117-0.517 0.15-0.65v0c0.167-0.5 0.25-0.967 0.25-1.4v0c0-0.433-0.11-0.767-0.33-1-0.213-0.233-0.52-0.35-0.92-0.35v0c-0.767 0-1.483 0.34-2.15 1.02-0.667 0.687-1.2 1.613-1.6 2.78-0.4 1.167-0.6 2.45-0.6 3.85v0c0 3.867 1.683 5.8 5.05 5.8v0c1.367 0 2.84-0.46 4.42-1.38 1.587-0.913 3.147-2.287 4.68-4.12v0c0.4-0.467 0.85-0.7 1.35-0.7v0c0.433 0 0.773 0.2 1.02 0.6 0.253 0.4 0.38 0.95 0.38 1.65v0c0 1.267-0.317 2.3-0.95 3.1v0c-1.567 1.933-3.44 3.423-5.62 4.47-2.187 1.053-4.297 1.58-6.33 1.58zM153.3-11.15c0.433 0 0.777 0.2 1.03 0.6 0.247 0.4 0.37 0.95 0.37 1.65v0c0 1.333-0.317 2.367-0.95 3.1v0c-1.533 1.767-3.107 3.217-4.72 4.35-1.62 1.133-3.463 1.7-5.53 1.7v0c-1.7 0-2.983-0.493-3.85-1.48-0.867-0.98-1.3-2.403-1.3-4.27v0c0-0.933 0.233-2.6 0.7-5v0c0.433-2.1 0.65-3.55 0.65-4.35v0c0-0.533-0.183-0.8-0.55-0.8v0c-0.433 0-1.05 0.557-1.85 1.67-0.8 1.12-1.6 2.597-2.4 4.43-0.8 1.833-1.45 3.767-1.95 5.8v0c-0.633 2.667-2.2 4-4.7 4v0c-1 0-1.657-0.36-1.97-1.08-0.32-0.713-0.48-2.003-0.48-3.87v0c0-1.067 0.017-1.917 0.05-2.55v0l0.05-4c0-5.133 0.527-10.483 1.58-16.05 1.047-5.567 2.597-10.243 4.65-14.03 2.047-3.78 4.503-5.67 7.37-5.67v0c1.533 0 2.777 0.657 3.73 1.97 0.947 1.32 1.42 3.03 1.42 5.13v0c0 3.367-0.983 6.857-2.95 10.47-1.967 3.62-5.167 7.847-9.6 12.68v0c-0.1 1.733-0.15 3.517-0.15 5.35v0c1.1-2.833 2.327-5.14 3.68-6.92 1.347-1.787 2.68-3.063 4-3.83 1.313-0.767 2.52-1.15 3.62-1.15v0c2.167 0 3.25 1.083 3.25 3.25v0c0 1.3-0.367 3.65-1.1 7.05v0c-0.633 2.9-0.95 4.817-0.95 5.75v0c0 1.333 0.483 2 1.45 2v0c0.667 0 1.46-0.41 2.38-1.23 0.913-0.813 2.137-2.137 3.67-3.97v0c0.4-0.467 0.85-0.7 1.35-0.7zM138.45-42.05c-0.6 0-1.267 0.857-2 2.57-0.733 1.72-1.44 4.04-2.12 6.96-0.687 2.913-1.247 6.087-1.68 9.52v0c2.067-2.433 3.777-5.083 5.13-7.95 1.347-2.867 2.02-5.467 2.02-7.8v0c0-1.067-0.117-1.883-0.35-2.45-0.233-0.567-0.567-0.85-1-0.85zM177.25-15.35c0.433 0 0.767 0.217 1 0.65 0.233 0.433 0.35 0.983 0.35 1.65v0c0 0.833-0.117 1.473-0.35 1.92-0.233 0.453-0.6 0.763-1.1 0.93v0c-2 0.7-4.2 1.1-6.6 1.2v0c-0.667 2.767-1.923 5-3.77 6.7-1.853 1.7-3.897 2.55-6.13 2.55v0c-3.367 0-5.817-1.283-7.35-3.85-1.533-2.567-2.3-6.283-2.3-11.15v0c0-4.3 0.533-8.977 1.6-14.03 1.067-5.047 2.627-9.347 4.68-12.9 2.047-3.547 4.487-5.32 7.32-5.32v0c1.533 0 2.767 0.657 3.7 1.97 0.933 1.32 1.4 3.03 1.4 5.13v0c0 2.733-0.517 5.45-1.55 8.15-1.033 2.7-2.75 5.533-5.15 8.5v0c2.233 0.167 4.05 1.09 5.45 2.77 1.4 1.687 2.233 3.763 2.5 6.23v0c1.567-0.1 3.433-0.433 5.6-1v0c0.2-0.067 0.433-0.1 0.7-0.1zM163.45-42.05c-0.667 0-1.39 0.99-2.17 2.97-0.787 1.987-1.513 4.68-2.18 8.08-0.667 3.4-1.167 7.117-1.5 11.15v0c2.2-4.033 3.96-7.593 5.28-10.68 1.313-3.08 1.97-5.82 1.97-8.22v0c0-1.067-0.127-1.883-0.38-2.45-0.247-0.567-0.587-0.85-1.02-0.85zM160.85-5.05c1.033 0 1.95-0.433 2.75-1.3 0.8-0.867 1.333-2.117 1.6-3.75v0c-1.033-0.7-1.827-1.617-2.38-2.75-0.547-1.133-0.82-2.333-0.82-3.6v0c0-0.467 0.067-1.1 0.2-1.9v0h-0.15c-1.367 0-2.507 0.677-3.42 2.03-0.92 1.347-1.38 3.153-1.38 5.42v0c0 1.9 0.357 3.35 1.07 4.35 0.72 1 1.563 1.5 2.53 1.5zM199.8-15.35c0.433 0 0.767 0.217 1 0.65 0.233 0.433 0.35 0.983 0.35 1.65v0c0 1.6-0.483 2.55-1.45 2.85v0c-2 0.7-4.2 1.1-6.6 1.2v0c-0.633 2.8-1.883 5.043-3.75 6.73-1.867 1.68-3.983 2.52-6.35 2.52v0c-2 0-3.707-0.483-5.12-1.45-1.42-0.967-2.497-2.25-3.23-3.85-0.733-1.6-1.1-3.333-1.1-5.2v0c0-2.533 0.483-4.793 1.45-6.78 0.967-1.98 2.3-3.53 4-4.65 1.7-1.113 3.583-1.67 5.65-1.67v0c2.533 0 4.577 0.873 6.13 2.62 1.547 1.753 2.453 3.913 2.72 6.48v0c1.567-0.1 3.433-0.433 5.6-1v0c0.267-0.067 0.5-0.1 0.7-0.1zM183.4-5.05c1.067 0 1.993-0.433 2.78-1.3 0.78-0.867 1.303-2.117 1.57-3.75v0c-1.033-0.7-1.823-1.617-2.37-2.75-0.553-1.133-0.83-2.333-0.83-3.6v0c0-0.533 0.05-1.067 0.15-1.6v0h-0.25c-1.333 0-2.44 0.64-3.32 1.92-0.887 1.287-1.33 3.097-1.33 5.43v0c0 1.833 0.36 3.233 1.08 4.2 0.713 0.967 1.553 1.45 2.52 1.45zM226.95-11.15c0.433 0 0.777 0.2 1.03 0.6 0.247 0.4 0.37 0.95 0.37 1.65v0c0 1.333-0.317 2.367-0.95 3.1v0c-1.467 1.733-3.073 3.173-4.82 4.32-1.753 1.153-3.73 1.73-5.93 1.73v0c-1.7 0-3.207-0.317-4.52-0.95-1.32-0.633-2.363-1.533-3.13-2.7v0c-1.9 2.4-4.15 3.6-6.75 3.6v0c-1.833 0-3.283-0.533-4.35-1.6-1.067-1.067-1.6-2.483-1.6-4.25v0c0-1.667 0.383-3.017 1.15-4.05 0.767-1.033 1.85-1.55 3.25-1.55v0c1.2 0 1.8 0.45 1.8 1.35v0c0 0.233-0.033 0.65-0.1 1.25v0c-0.1 1.2-0.15 1.883-0.15 2.05v0c0 1 0.433 1.5 1.3 1.5v0c0.633 0 1.243-0.377 1.83-1.13 0.58-0.747 1.063-1.77 1.45-3.07 0.38-1.3 0.57-2.733 0.57-4.3v0c0-1.2-0.15-2.21-0.45-3.03-0.3-0.813-0.667-1.22-1.1-1.22v0c-0.367 0-0.633 0.093-0.8 0.28-0.167 0.18-0.333 0.487-0.5 0.92v0c-0.2 0.533-0.467 0.957-0.8 1.27-0.333 0.32-0.917 0.48-1.75 0.48v0c-0.733 0-1.317-0.26-1.75-0.78-0.433-0.513-0.65-1.303-0.65-2.37v0c0-1.7 0.517-3.033 1.55-4 1.033-0.967 2.367-1.45 4-1.45v0c1.4 0 2.667 0.34 3.8 1.02 1.133 0.687 2 1.68 2.6 2.98v0c1-1.333 2.127-2.333 3.38-3 1.247-0.667 2.47-1 3.67-1v0c1.3 0 2.293 0.3 2.98 0.9 0.68 0.6 1.02 1.567 1.02 2.9v0c0 1.5-0.283 2.673-0.85 3.52-0.567 0.853-1.25 1.28-2.05 1.28v0c-0.733 0-1.233-0.15-1.5-0.45-0.267-0.3-0.467-0.733-0.6-1.3v0c-0.067-0.4-0.167-0.7-0.3-0.9-0.133-0.2-0.367-0.3-0.7-0.3v0c-0.4 0-0.823 0.373-1.27 1.12-0.453 0.753-0.837 1.747-1.15 2.98-0.32 1.233-0.48 2.517-0.48 3.85v0c0 1.567 0.377 2.773 1.13 3.62 0.747 0.853 1.77 1.28 3.07 1.28v0c1.3 0 2.527-0.443 3.68-1.33 1.147-0.88 2.487-2.253 4.02-4.12v0c0.4-0.467 0.85-0.7 1.35-0.7z"
                                                                      data-fill-palette-color="primary" fill="#0080ff"
                                                                      opacity="1"></path>
                                                            </g>
                                                        </svg>
                                                    </g>
                                                </svg>
                                            </g>
                                        </svg>
                                    </g>
                                </svg>
                            </g>
                        </svg>
                    </g>
                </svg>
                <rect width="395.52" height="87.01786339754815" fill="none" stroke="none" visibility="hidden"></rect>
            </g>
        </svg>
    </g>
</svg>
